PathFileType	4	(X/Y/Z)	C:\Users\Basilio\Documents\Thesis Gigler\squatting_fais\c3dfiles\039\SLS_pre_back2\markers_experimental.trc
DataRate	CameraRate	NumFrames	NumMarkers	Units	OrigDataRate	OrigDataStartFrame	OrigNumFrames
200.000000	200.000000	4	63	mm	200.000000	631	1684
Frame#	Time	FHD			LBHD			RBHD			C7			T10			LSHO			LUUPA			LMUPA			LDUPA			LLEP			LMEP			LRAD			LUL			LRFIN			RSHO			RUPA1			RMUPA			RDUPA			RLEP			RMEP			RRAD			RUL			RUFIN			LASI			RASI			USACR			LSACR			RSACR			LTHI1			LTHI2			LTHI3			LTHI4			LMFC			LTIB1			LTIB2			LTIB3			LTIB4			LLMAL			LMMAL			LHEE			LMT1			LMT2			LMT5			RTHI			RTHI2			RTHI3			RTHI4			RLFC			RMFC			RTIB1			RTIB2			RTIB3			RTIB4			RLMAL			RMMAL			RHEE			RMT1			RMT2			RMT5			LLFC			CLAV			*61			*62			
		X1	Y1	Z1	X2	Y2	Z2	X3	Y3	Z3	X4	Y4	Z4	X5	Y5	Z5	X6	Y6	Z6	X7	Y7	Z7	X8	Y8	Z8	X9	Y9	Z9	X10	Y10	Z10	X11	Y11	Z11	X12	Y12	Z12	X13	Y13	Z13	X14	Y14	Z14	X15	Y15	Z15	X16	Y16	Z16	X17	Y17	Z17	X18	Y18	Z18	X19	Y19	Z19	X20	Y20	Z20	X21	Y21	Z21	X22	Y22	Z22	X23	Y23	Z23	X24	Y24	Z24	X25	Y25	Z25	X26	Y26	Z26	X27	Y27	Z27	X28	Y28	Z28	X29	Y29	Z29	X30	Y30	Z30	X31	Y31	Z31	X32	Y32	Z32	X33	Y33	Z33	X34	Y34	Z34	X35	Y35	Z35	X36	Y36	Z36	X37	Y37	Z37	X38	Y38	Z38	X39	Y39	Z39	X40	Y40	Z40	X41	Y41	Z41	X42	Y42	Z42	X43	Y43	Z43	X44	Y44	Z44	X45	Y45	Z45	X46	Y46	Z46	X47	Y47	Z47	X48	Y48	Z48	X49	Y49	Z49	X50	Y50	Z50	X51	Y51	Z51	X52	Y52	Z52	X53	Y53	Z53	X54	Y54	Z54	X55	Y55	Z55	X56	Y56	Z56	X57	Y57	Z57	X58	Y58	Z58	X59	Y59	Z59	X60	Y60	Z60	X61	Y61	Z61	X62	Y62	Z62	X63	Y63	Z63	

632	3.155	-142.2398223876953	1599.838256835938	-658.5234375000001	-304.9904785156251	1590.922973632813	-777.1108398437502	-274.7341918945313	1590.75732421875	-638.5277099609376	-367.2448120117188	1434.80810546875	-719.8396606445314	-445.1969604492189	1141.558349609375	-758.2936401367189	-299.4537658691407	1442.36962890625	-877.251403808594	-142.5775299072266	1394.994750976563	-993.4401855468752	-116.0859909057617	1423.6220703125	-961.855163574219	-72.66326904296876	1399.059448242188	-994.761413574219	-4.902920722961427	1401.982421875	-990.9366455078127	-5.529656410217286	1329.37158203125	-962.191833496094	274.3274230957032	1407.24365234375	-898.0789184570315	275.4231872558594	1419.2646484375	-973.5000000000002	351.7964477539063	1447.55419921875	-887.9565429687502	-256.4733581542969	1408.186401367188	-561.0017089843751	-102.9744338989258	1323.35888671875	-469.0492248535157	-74.19978332519533	1358.478271484375	-490.5017395019532	-33.25918197631837	1318.934448242188	-469.4522094726564	30.51987266540528	1332.40478515625	-479.9385070800782	32.61330795288087	1268.566650390625	-524.8076782226564	314.3803100585938	1378.682861328125	-577.7581176757814	319.6615905761719	1363.673583984375	-503.4356079101564	395.7336730957032	1419.967041015625	-574.0075073242189	-330.5807495117188	932.0393676757815	-893.8159790039065	-309.0637512207032	926.2529296875002	-674.5887451171876	-491.0018310546876	1015.195556640625	-763.5543212890626	-502.2268981933595	982.975769042969	-790.2287597656252	-496.1585693359376	983.2501220703127	-730.7453002929689	-363.6594543457032	673.1148681640626	-995.2468872070315	-314.0421447753907	605.7034912109376	-1014.336791992188	-267.2409057617188	614.4891357421876	-1009.773071289063	-328.7030334472657	545.4735107421876	-1004.139404296875	-273.3518371582032	414.591522216797	-901.097351074219	-391.206268310547	354.5568847656251	-970.7901611328127	-453.2698059082032	417.1860656738282	-990.7348632812502	-446.495819091797	375.0715332031251	-981.9719238281252	-511.0060119628907	353.2788696289063	-927.5996704101565	-695.7113647460939	380.4823303222657	-909.2479248046877	-660.6469726562501	357.7606506347657	-832.4842529296877	-721.2617797851564	444.8723144531251	-855.0838012695315	-727.0442504882814	212.1100158691407	-824.3114013671877	-750.7354736328126	216.0535583496094	-860.6389770507815	-797.7427368164065	260.8944396972657	-888.6680908203127	-258.9931335449219	691.6053466796876	-605.8464965820314	-197.432601928711	664.6242065429689	-608.2909545898439	-170.8693542480469	683.6557617187501	-615.1594238281251	-181.6184997558594	581.9193725585939	-620.3692016601564	-158.8828887939453	465.2098999023439	-658.7828979492189	-134.2647399902344	475.9341125488282	-769.9045410156252	-197.821762084961	274.7912292480469	-713.8237304687501	-301.0260925292969	245.6705627441407	-704.7546997070314	-261.9270935058594	222.0086975097657	-714.8178710937501	-266.7499389648438	177.0284271240235	-754.7603759765626	-363.4070129394532	114.9023132324219	-741.2971801757814	-333.8468322753907	136.1962127685547	-825.1294555664065	-440.7510681152345	99.08179473876956	-793.8562622070315	-215.1172790527344	53.29010391235353	-806.4075927734377	-219.4666748046876	54.14786911010744	-760.9254150390626	-274.9447021484376	35.93622589111329	-709.3052368164064	-307.3081359863282	462.2093505859376	-1003.535034179688	nan	nan	nan	nan	nan	nan	nan	nan	nan	
633	3.16	-142.099853515625	1599.251953125	-658.4835815429689	-304.4710693359376	1590.24853515625	-777.3712158203127	-274.4257202148438	1590.151611328125	-638.7958374023439	-367.0964660644532	1434.328369140625	-719.8340454101564	-445.2159729003907	1141.096923828125	-758.3721923828126	-299.1578674316407	1441.816772460938	-877.356384277344	-142.2087097167969	1394.205322265625	-993.5455322265627	-115.8060150146485	1422.973754882813	-961.9621582031252	-72.28651428222658	1398.311279296875	-994.7759399414065	-4.59050750732422	1401.06396484375	-991.0284423828127	-5.305674552917481	1328.963745117188	-961.7919921875002	274.6593933105469	1406.742431640625	-898.3574829101565	275.6844177246094	1418.414916992188	-973.4873657226565	352.0540466308594	1446.787353515625	-888.037780761719	-256.1955261230469	1407.7431640625	-561.1306152343751	-102.6163024902344	1323.056884765625	-468.8048095703126	-73.8004608154297	1358.058349609375	-490.3987731933595	-33.10575103759766	1318.304077148438	-469.5006103515626	30.6981601715088	1331.800048828125	-480.0806884765626	32.80960083007813	1267.8291015625	-524.9690551757814	314.0767211914063	1378.235107421875	-577.7467651367189	320.1663208007813	1362.954345703125	-503.207977294922	395.887664794922	1419.313110351563	-574.1545410156251	-330.7393188476563	931.4713134765627	-893.7813110351565	-309.3734741210938	925.1237792968752	-674.0848999023439	-491.1167297363282	1014.878845214844	-763.7297363281251	-502.3074951171876	982.644470214844	-790.3642578125002	-496.4060363769532	982.9041137695315	-730.8422851562501	-363.6372070312501	672.6967773437501	-995.1800537109377	-313.9897155761719	605.2434082031251	-1014.193115234375	-267.1807556152344	614.0284423828126	-1009.626037597656	-328.7344055175782	544.9892578125001	-1004.114990234375	-273.3505859375001	414.0858459472657	-901.0236816406252	-391.2259216308595	354.2902526855469	-970.7373657226565	-453.2778930664064	416.9165039062501	-990.716247558594	-446.442596435547	374.7371826171876	-981.9631347656252	-511.0811157226564	353.0397033691407	-927.7195434570315	-695.7687377929689	380.4069519042969	-909.2583618164065	-660.1309204101564	358.0797424316407	-831.9320068359377	-721.2045898437501	444.8575744628907	-855.210632324219	-727.1984863281251	212.1812591552735	-824.0178833007815	-750.9787597656251	216.0738067626954	-860.5236816406252	-798.0054931640627	260.9495239257813	-888.5952148437502	-259.1616821289063	691.2461547851564	-605.8596191406251	-197.6111755371094	664.4638671875001	-608.2857055664064	-171.0055847167969	683.4914550781251	-615.2208251953126	-181.6133728027344	581.7471923828126	-620.4146728515626	-158.6907806396485	465.0740661621095	-658.7998046875001	-134.1005096435547	475.876678466797	-769.9340820312502	-197.7300262451172	274.6987915039063	-713.8820800781251	-300.9412231445313	245.6973724365235	-704.8085937500001	-261.8653564453126	221.9536895751954	-714.8555908203126	-266.6945190429688	176.9489440917969	-754.8084106445314	-363.3943481445313	114.8971633911133	-741.3316040039064	-333.7950439453126	136.2469177246094	-825.175720214844	-440.792694091797	99.13467407226565	-793.9261474609377	-215.0988769531251	53.2285499572754	-806.4167480468752	-219.4486541748047	54.14109039306642	-760.9051513671876	-274.9180603027344	35.93783187866212	-709.3032836914064	-307.1976013183594	461.7959289550782	-1003.450073242188	nan	nan	nan	nan	nan	nan	nan	nan	nan	
634	3.165	-141.8582153320313	1598.606201171875	-658.3972778320314	-304.3935546875001	1589.734985351563	-777.4053344726565	-274.0114440917969	1589.572021484375	-638.8579711914064	-366.7727661132813	1433.778442382813	-720.0902709960939	-444.5579223632814	1140.812377929688	-758.0457763671876	-298.8062744140626	1441.297973632813	-877.5806884765627	-141.8397369384766	1393.505493164063	-993.5791015625002	-115.4335708618164	1422.321655273438	-962.1251220703127	-71.64741516113283	1397.260864257813	-994.7786865234377	-4.287158966064454	1400.354614257813	-991.2097778320315	-5.091932773590089	1328.408081054688	-961.6746215820315	274.8691101074219	1405.812377929688	-898.2070922851565	275.9893493652344	1417.58203125	-973.5355224609377	352.5084533691407	1445.995361328125	-888.127380371094	-256.0482177734376	1407.16796875	-561.2669677734376	-102.4299087524414	1322.474853515625	-469.0112609863282	-73.93088531494142	1357.323974609375	-490.6972045898439	-32.92977142333985	1317.605712890625	-469.6155090332032	30.88517761230469	1331.104614257813	-480.1685180664064	32.89427947998048	1267.343627929688	-524.9943237304689	314.1854553222657	1377.360229492188	-577.8067016601564	320.1351013183594	1362.177490234375	-503.7194213867189	396.058563232422	1418.746826171875	-574.2913818359376	-330.8110351562501	930.8798828125002	-893.770202636719	-309.7072143554688	924.8830566406252	-674.3291015625001	-491.2380676269532	1014.606628417969	-763.8447875976564	-502.4531250000001	982.484802246094	-790.426208496094	-496.6290283203126	982.6248168945315	-730.9498901367189	-363.6365966796876	672.2396240234376	-995.1201782226565	-314.0339965820313	604.8817138671876	-1014.089050292969	-267.1744689941407	613.5717163085939	-1009.394226074219	-328.6662292480469	544.6071166992189	-1004.048522949219	-273.2641601562501	413.704559326172	-901.0106201171877	-391.167205810547	353.8996582031251	-970.5671997070315	-453.2845764160157	416.6755981445314	-990.6337890625002	-446.3977355957032	374.5462036132813	-981.8991699218752	-511.1490173339845	352.7807617187501	-927.6306152343752	-695.8437500000001	380.2977294921876	-909.286560058594	-660.2731323242189	357.9810485839844	-831.9792480468752	-721.1810913085939	444.8102416992189	-855.3103027343752	-727.3939208984376	212.1543121337891	-824.0137939453127	-751.3121948242189	216.0294799804688	-860.4559326171877	-798.3002929687502	261.0688476562501	-888.515808105469	-259.3262634277344	690.9437866210939	-605.8580932617189	-197.6531219482422	664.4080810546876	-608.2980957031251	-171.0601806640625	683.3991088867189	-615.2641601562501	-181.6253204345703	581.6419067382814	-620.4425659179689	-158.5904083251953	464.9871826171876	-658.8923950195314	-134.1515350341797	475.8228454589845	-769.966003417969	-197.6250305175782	274.5697021484376	-713.9834594726564	-300.8623657226563	245.6788940429688	-704.8526611328126	-261.8076171875001	221.8863220214844	-714.8597412109376	-266.6159667968751	177.0010986328125	-754.8341064453126	-363.3378601074219	114.8975448608399	-741.3541259765626	-333.8433532714844	136.234603881836	-825.2263183593752	-440.811981201172	99.14041137695315	-793.9194335937502	-215.110092163086	53.18784713745119	-806.4294433593752	-219.4547424316407	54.13574981689455	-760.9370117187501	-274.9499511718751	35.9078598022461	-709.3082885742189	-307.1334533691407	461.413543701172	-1003.445251464844	nan	nan	nan	-307.1259765625001	461.3714294433595	-1003.38525390625	nan	nan	nan	
635	3.17	-141.5324249267578	1598.1044921875	-658.3079833984376	-303.6829528808594	1589.128540039063	-777.5599365234377	-273.6890258789063	1589.050415039063	-639.0817260742189	-366.4029541015626	1433.28271484375	-720.2546997070314	-444.486297607422	1140.387451171875	-758.0808715820314	-298.5068359375001	1440.666015625	-877.6668090820315	-141.5199584960938	1392.766967773438	-993.749450683594	-115.0873031616211	1421.563598632813	-962.2701416015627	-71.76448059082033	1396.789184570313	-994.9730224609377	-3.966162681579591	1399.721313476563	-991.200622558594	-4.924612998962403	1328.066528320313	-961.017517089844	275.2388000488282	1404.982788085938	-898.0938720703127	276.3060913085938	1416.79931640625	-973.5672607421877	352.7752075195313	1445.1630859375	-888.0974731445315	-255.9568176269532	1406.587768554688	-561.3784179687501	-102.2618026733399	1321.765502929688	-469.0126342773439	-73.87081909179689	1356.6689453125	-490.8513183593751	-32.84603118896485	1316.896850585938	-469.875213623047	31.09515380859376	1330.53662109375	-480.2440185546876	33.06305694580079	1266.7919921875	-525.1305541992189	314.4321289062501	1376.696044921875	-577.8801879882814	320.2833251953126	1361.435424804688	-503.653778076172	396.3462219238282	1417.869262695313	-574.5072631835939	-331.0063476562501	930.400573730469	-893.743591308594	-309.8868408203126	924.4304199218752	-674.1506347656251	-491.3981933593751	1014.45849609375	-763.9291992187501	-502.5857238769532	982.1331176757815	-790.4841918945315	-496.7957153320314	982.3734130859377	-731.0670776367189	-363.6991271972657	671.8686523437501	-995.1106567382815	-313.9683227539063	604.3907470703126	-1014.022827148438	-267.1595458984376	613.2486572265626	-1009.252807617188	-328.6346130371094	544.1712646484376	-1003.946472167969	-273.3327941894532	413.2962036132814	-900.694763183594	-390.9178771972657	353.3166809082032	-970.3596191406252	-453.2257080078126	416.4622802734376	-990.5227050781252	-446.3401794433595	374.2722778320313	-981.7812500000002	-511.2135620117189	352.5115661621094	-927.5569458007815	-695.9050903320314	380.2566223144532	-909.2996215820315	-660.8007812500001	357.4157104492188	-832.5932617187502	-721.1481933593751	444.7951965332032	-855.442810058594	-727.5606689453126	212.2599792480469	-823.7407226562502	-751.5455932617189	216.0469512939454	-860.3213500976565	-798.4695434570315	261.1508178710938	-888.400817871094	-259.4682312011719	690.5861816406251	-605.9084472656251	-197.6780395507813	664.3622436523439	-608.3416748046876	-171.1378784179688	683.2337036132814	-615.3131103515626	-181.6160736083985	581.5050048828126	-620.5891113281251	-158.4211578369141	464.8796386718751	-658.9556274414064	-133.9844207763672	475.8027343750001	-770.020446777344	-197.5211639404297	274.5265808105469	-714.1176757812501	-300.7906494140626	245.7166595458985	-704.8859252929689	-261.7655029296876	221.8409118652344	-714.8970336914064	-266.5822448730469	176.9934234619141	-754.9053955078126	-363.3140563964844	114.9248809814453	-741.3796997070314	-333.8416442871094	136.2536773681641	-825.341491699219	-440.7615966796876	99.07903289794925	-793.9629516601565	-215.1424255371094	53.20868301391603	-806.507263183594	-219.4622039794922	54.13039779663087	-760.9287109375001	-274.9520874023438	35.92487716674805	-709.3092651367189	-307.1225585937501	461.0116577148439	-1003.287231445313	nan	nan	nan	nan	nan	nan	nan	nan	nan	
